<svg xmlns="http://www.w3.org/2000/svg" width="47.49" height="47.49" viewBox="0 0 47.49 47.49">
  <g id="Group_4834" data-name="Group 4834" transform="translate(-1002.013 -12.115)">
    <path id="Path_78220" data-name="Path 78220" d="M1012.214,17.2c0-1.22-.015-2.36.006-3.5a1.536,1.536,0,0,1,.985-1.428,1.6,1.6,0,0,1,1.728.218,1.69,1.69,0,0,1,.648,1.438q0,1.341,0,2.682v.563h20.357c0-.807,0-1.6,0-2.383,0-.364-.02-.73.011-1.092a1.678,1.678,0,0,1,3.353.086c.023.893.007,1.788.008,2.682,0,.228,0,.456,0,.736.609,0,1.152,0,1.7,0,1.307.013,2.621-.052,3.92.062a5,5,0,0,1,4.57,5.055c.014,4.867,0,9.734,0,14.6q0,8.716,0,17.432a5.13,5.13,0,0,1-5.237,5.25q-18.426-.005-36.851,0a5.138,5.138,0,0,1-5.4-5.433q.013-15.868.006-31.736a5.054,5.054,0,0,1,4.02-5.1,9.33,9.33,0,0,1,1.826-.13C1009.286,17.19,1010.708,17.2,1012.214,17.2Zm33.9,15.313H1005.4v.338q0,10.777,0,21.555a1.725,1.725,0,0,0,1.908,1.808q18.426,0,36.852,0a1.734,1.734,0,0,0,1.954-1.959q.006-7.4,0-14.8C1046.117,37.156,1046.117,34.857,1046.117,32.515Zm-30.51-11.932c-.012.24-.028.418-.029.6,0,.894,0,1.788,0,2.682a1.689,1.689,0,0,1-1.634,1.816,1.669,1.669,0,0,1-1.734-1.762c-.02-.943,0-1.887-.008-2.831,0-.157-.019-.315-.03-.5-1.663,0-3.268-.005-4.873,0a1.737,1.737,0,0,0-1.9,1.924q0,3.005,0,6.01v.536h40.693c.009-.163.022-.292.022-.421q0-3.08,0-6.159a1.734,1.734,0,0,0-1.881-1.89c-1.093-.01-2.186,0-3.278,0h-1.64v.532c0,.911.009,1.821-.006,2.732a1.692,1.692,0,1,1-3.371-.021c0-.877-.023-1.756.009-2.632.016-.458-.092-.626-.6-.625q-9.561.027-19.123.012Z" transform="translate(0 0)" fill="#ffb03b"/>
    <path id="Path_78221" data-name="Path 78221" d="M1130.039,264.089c1.792-1.8,3.485-3.494,5.181-5.191q3.58-3.582,7.165-7.16a1.683,1.683,0,0,1,2.761.349,1.7,1.7,0,0,1-.38,2.042q-2.223,2.236-4.457,4.461-4.459,4.459-8.917,8.919a1.635,1.635,0,0,1-1.7.543,2.193,2.193,0,0,1-.88-.514q-3.337-3.3-6.64-6.632a1.689,1.689,0,1,1,2.391-2.379q2.557,2.533,5.092,5.09C1129.784,263.745,1129.886,263.9,1130.039,264.089Z" transform="translate(-107.713 -215.308)" fill="#ffb03b"/>
  </g>
</svg>
