<svg xmlns="http://www.w3.org/2000/svg" width="15" height="15.032" viewBox="0 0 15 15.032">
  <g id="Group_4802" data-name="Group 4802" transform="translate(-3505.545 905.216)">
    <path id="Path_78218" data-name="Path 78218" d="M3511.682-897.863l-1.253-1.572q-.769-.967-1.538-1.934-.636-.8-1.275-1.593-.8-.992-1.591-1.984c-.09-.112-.175-.227-.261-.342a.18.18,0,0,0-.273-.042c-.608.358-1.219.711-1.829,1.067-.157.091-.312.185-.467.28-.1.06-.115.118-.037.216.522.65,1.037,1.3,1.552,1.959.334.425.66.855.995,1.28.424.537.853,1.072,1.279,1.608.248.311.492.624.743.933a.18.18,0,0,1,0,.259c-.575.724-1.147,1.45-1.72,2.174-.407.514-.818,1.026-1.224,1.541q-.742.942-1.478,1.887a1.378,1.378,0,0,1-.135.168c-.106.1-.068.169.043.234q.779.452,1.556.906c.239.14.479.28.715.423.137.083.193.078.292-.047l.733-.923q.932-1.168,1.864-2.335c.457-.573.908-1.149,1.366-1.721.5-.628,1.012-1.253,1.516-1.881C3511.4-897.486,3511.537-897.673,3511.682-897.863Z" transform="translate(2.442 0.156)" fill="#00a98d"/>
    <path id="Path_78219" data-name="Path 78219" d="M3511.682-897.863l-1.253-1.572q-.769-.967-1.538-1.934-.636-.8-1.275-1.593-.8-.992-1.591-1.984c-.09-.112-.175-.227-.261-.342a.18.18,0,0,0-.273-.042c-.608.358-1.219.711-1.829,1.067-.157.091-.312.185-.467.28-.1.06-.115.118-.037.216.522.65,1.037,1.3,1.552,1.959.334.425.66.855.995,1.28.424.537.853,1.072,1.279,1.608.248.311.492.624.743.933a.18.18,0,0,1,0,.259c-.575.724-1.147,1.45-1.72,2.174-.407.514-.818,1.026-1.224,1.541q-.742.942-1.478,1.887a1.378,1.378,0,0,1-.135.168c-.106.1-.068.169.043.234q.779.452,1.556.906c.239.14.479.28.715.423.137.083.193.078.292-.047l.733-.923q.932-1.168,1.864-2.335c.457-.573.908-1.149,1.366-1.721.5-.628,1.012-1.253,1.516-1.881C3511.4-897.486,3511.537-897.673,3511.682-897.863Z" transform="translate(8.863 0.156)" fill="#00a98d"/>
  </g>
</svg>
