<svg xmlns="http://www.w3.org/2000/svg" width="56.074" height="56.074" viewBox="0 0 56.074 56.074">
  <g id="Group_4837" data-name="Group 4837" transform="translate(-532.054 -1176.054)">
    <g id="Group_4836" data-name="Group 4836" transform="translate(1040.304 1000.304)">
      <path id="Path_78222" data-name="Path 78222" d="M-480.76,175.75c1.519.289,3.066.474,4.55.885a24.882,24.882,0,0,1,13.023,8.59,24.931,24.931,0,0,1,5.4,12.892,24.717,24.717,0,0,1-.649,9.334,2.834,2.834,0,0,1-3.47,2.138,2.817,2.817,0,0,1-2.029-3.483,21.631,21.631,0,0,0,.581-6.458,19.263,19.263,0,0,0-3.885-10.407,19.344,19.344,0,0,0-9.9-6.97,18.525,18.525,0,0,0-9.248-.546c-7.037,1.395-12.1,5.4-14.747,12.055a18.844,18.844,0,0,0,2.419,18.883,18.537,18.537,0,0,0,11.726,7.557,19.247,19.247,0,0,0,17.118-4.524,7.92,7.92,0,0,1,1.375-1.071,2.963,2.963,0,0,1,3.339.283,5.85,5.85,0,0,1,.649.586c3.654,3.651,7.317,7.294,10.948,10.968a16.066,16.066,0,0,1,1.384,1.859v1.424a3.246,3.246,0,0,1-2.081,2.081h-1.424a11.833,11.833,0,0,1-1.681-1.171c-3.159-3.108-6.285-6.251-9.422-9.382-.125-.124-.26-.237-.375-.341a1.057,1.057,0,0,0-.146.066c-.089.064-.174.132-.262.2-6.291,4.66-13.319,6.375-20.924,4.564-10.043-2.391-16.406-8.788-19.123-18.761-.3-1.084-.428-2.212-.636-3.319v-5.257c.085-.519.165-1.04.255-1.558a25.167,25.167,0,0,1,7.835-14.442,24.573,24.573,0,0,1,11.311-6.018c1.219-.287,2.471-.439,3.707-.654Z" transform="translate(0 0)" fill="#ffb03b"/>
      <path id="Path_78223" data-name="Path 78223" d="M-386.936,409.7a15.3,15.3,0,0,1-7.234-1.889,2.693,2.693,0,0,1-1.284-3.7,2.778,2.778,0,0,1,3.869-1.23,10,10,0,0,0,5.533,1.192,10.115,10.115,0,0,0,3.944-1.2,4.676,4.676,0,0,1,1.733-.558,2.684,2.684,0,0,1,2.727,1.94,2.647,2.647,0,0,1-1.148,3.093,14.471,14.471,0,0,1-5.909,2.165C-385.443,409.618-386.192,409.64-386.936,409.7Z" transform="translate(-96.058 -193.48)" fill="#ffb03b"/>
    </g>
  </g>
</svg>
