<svg xmlns="http://www.w3.org/2000/svg" width="55.648" height="56.113" viewBox="0 0 55.648 56.113">
  <g id="Group_4839" data-name="Group 4839" transform="translate(-642.41 1002.25)">
    <path id="Path_78224" data-name="Path 78224" d="M649.958-948.3c-.987,0-1.868-.009-2.748,0-1.2.015-1.646.453-1.647,1.651q-.012,9.093-.013,18.187,0,10.234,0,20.469a3.614,3.614,0,0,0,.1,1.092c.244.753.87.91,1.589.909q6.148-.012,12.3,0H678.68c1.443,0,1.83-.392,1.826-1.832,0-.8,0-1.608,0-2.5l3.14.39a11.624,11.624,0,0,1-.263,4.206,4.4,4.4,0,0,1-4.216,2.893q-8.173.014-16.346,0c-5.3,0-10.6,0-15.9-.014a4.191,4.191,0,0,1-4.06-2.539,4.929,4.929,0,0,1-.421-1.988c-.034-5.767-.026-11.535-.025-17.3q0-11.081.012-22.162a4.407,4.407,0,0,1,4.7-4.62c.761.009,1.523-.022,2.281.023.191.011.519.239.527.382C649.982-950.184,649.958-949.3,649.958-948.3Z" transform="translate(0 -43.302)" fill="#ffb03b"/>
    <path id="Path_78225" data-name="Path 78225" d="M845.819-878.461A13.91,13.91,0,0,1,859.624-864.3a13.931,13.931,0,0,1-13.9,13.634,13.91,13.91,0,0,1-13.836-14.206A13.91,13.91,0,0,1,845.819-878.461Zm-.035,3.172a10.778,10.778,0,0,0-10.766,10.714,10.82,10.82,0,0,0,10.739,10.759,10.831,10.831,0,0,0,10.733-10.769A10.789,10.789,0,0,0,845.784-875.289Z" transform="translate(-161.566 -105.552)" fill="#ffb03b"/>
    <path id="Path_78226" data-name="Path 78226" d="M732.189-987.967h-20.8c-.016-.3-.042-.565-.042-.828q0-3.572.013-7.144c.006-1.432.539-1.948,1.971-1.934.614.006,1.229-.02,1.841.022a.985.985,0,0,0,1.142-.724,5.955,5.955,0,0,1,8.248-3,5.739,5.739,0,0,1,2.808,3.094.812.812,0,0,0,.917.621c.808-.036,1.62-.017,2.43.011a1.407,1.407,0,0,1,1.526,1.451c.029,2.7.016,5.4.016,8.1A1.858,1.858,0,0,1,732.189-987.967Zm-3.058-6.755c-.986,0-1.865.009-2.743,0a1.564,1.564,0,0,1-1.709-1.544,2.914,2.914,0,0,0-2.845-2.817,2.872,2.872,0,0,0-2.865,2.781,1.587,1.587,0,0,1-1.691,1.577c-.736.019-1.473.024-2.209,0-.419-.012-.563.152-.551.56.023.785.044,1.573,0,2.356-.029.567.191.7.725.7,2.823-.019,5.646,0,8.469,0,1.6,0,3.191,0,4.787,0,.335,0,.643.013.635-.476C729.119-992.587,729.131-993.59,729.131-994.722Z" transform="translate(-58.783)" fill="#ffb03b"/>
    <path id="Path_78227" data-name="Path 78227" d="M758.305-708.507H740.7c0-.957-.025-1.879.032-2.8.007-.115.444-.29.683-.292,3.68-.019,7.361.048,11.038-.041,1.612-.039,3.011.049,4.032,1.537A10.153,10.153,0,0,0,758.305-708.507Z" transform="translate(-83.806 -247.796)" fill="#ffb03b"/>
    <path id="Path_78228" data-name="Path 78228" d="M755.038-857.8c-.667,1.046-1.233,1.96-1.834,2.851a.749.749,0,0,1-.537.277c-3.874.01-7.747,0-11.621-.007a2.1,2.1,0,0,1-.335-.079c0-.891-.022-1.812.028-2.729.006-.115.394-.3.606-.3,3.432-.019,6.865-.014,10.3-.014Z" transform="translate(-83.815 -123.171)" fill="#ffb03b"/>
    <path id="Path_78229" data-name="Path 78229" d="M875.979-943.891c0-1.044-.006-2.021,0-3,.013-1.65-.326-2-1.953-2h-2.382v-3.263a26.11,26.11,0,0,1,4.454.385,3.939,3.939,0,0,1,2.979,3.639,28.2,28.2,0,0,1,.05,3.455.627.627,0,0,1-.4.455C877.865-944.08,876.989-944,875.979-943.891Z" transform="translate(-195.465 -42.718)" fill="#ffb03b"/>
    <path id="Path_78230" data-name="Path 78230" d="M752.317-757.168h-5.492c-1.841,0-3.681-.019-5.521.01-.585.009-.785-.193-.745-.766a17.319,17.319,0,0,0,.005-1.766c-.014-.42.111-.625.577-.623,3.264.015,6.528.007,9.791.024.184,0,.489.114.532.244C751.771-759.121,752.025-758.18,752.317-757.168Z" transform="translate(-83.685 -206.296)" fill="#ffb03b"/>
    <path id="Path_78231" data-name="Path 78231" d="M751.407-809.068c-.1.925-.161,1.827-.312,2.714-.026.15-.423.336-.651.338-2.253.024-4.506.012-6.76.01-.808,0-1.617-.024-2.425,0-.457.015-.684-.1-.658-.608.034-.66.027-1.323.011-1.983-.01-.391.106-.586.536-.584,3.355.017,6.71.021,10.065.032A.766.766,0,0,1,751.407-809.068Z" transform="translate(-83.725 -164.63)" fill="#ffb03b"/>
    <path id="Path_78232" data-name="Path 78232" d="M698.471-854.735c-.985,0-1.865.021-2.742-.021-.14-.007-.37-.291-.381-.459-.047-.709-.016-1.422-.033-2.133-.01-.378.144-.531.521-.521.711.017,1.425-.018,2.133.035a.67.67,0,0,1,.48.434C698.5-856.549,698.471-855.693,698.471-854.735Z" transform="translate(-45.11 -123.11)" fill="#ffb03b"/>
    <path id="Path_78233" data-name="Path 78233" d="M695.327-760.029h3.146c0,.928.017,1.827-.019,2.724-.005.13-.26.351-.407.357a21.511,21.511,0,0,1-2.277-.012.615.615,0,0,1-.424-.421C695.306-758.231,695.327-759.085,695.327-760.029Z" transform="translate(-45.117 -206.538)" fill="#ffb03b"/>
    <path id="Path_78234" data-name="Path 78234" d="M695.344-809.2c.979,0,1.833-.025,2.683.022.166.009.323.293.468.465.036.043.006.142.007.216.049,2.65.048,2.658-2.613,2.454-.191-.015-.512-.252-.52-.4C695.319-807.315,695.344-808.192,695.344-809.2Z" transform="translate(-45.13 -164.605)" fill="#ffb03b"/>
    <path id="Path_78235" data-name="Path 78235" d="M696.943-708.336c-1.536,0-1.536,0-1.537-1.551,0-1.6,0-1.6,1.573-1.592s1.579.007,1.581,1.607C698.562-708.331,698.562-708.331,696.943-708.336Z" transform="translate(-45.188 -247.935)" fill="#ffb03b"/>
    <path id="Path_78236" data-name="Path 78236" d="M880.913-816.263l2-2.445,3.77,3.034,5.419-7,2.506,1.931-7.419,9.586Z" transform="translate(-203.367 -153.118)" fill="#ffb03b"/>
  </g>
</svg>
